<svg width="48" height="48" viewBox="0 0 48 48" fill="none" xmlns="http://www.w3.org/2000/svg">
<path fill-rule="evenodd" clip-rule="evenodd" d="M24 44C35.0457 44 44 35.0457 44 24C44 12.9543 35.0457 4 24 4C12.9543 4 4 12.9543 4 24C4 35.0457 12.9543 44 24 44ZM36.3642 34.7193C36.3415 34.6268 36.3132 34.5443 36.2786 34.474C35.8521 33.6061 33.0446 31.4309 30.2266 29.7865L28.6276 28.9766C28.5183 28.1138 28.5616 27.1916 28.5964 26.7708C28.6953 25.571 28.9407 24.8971 29.9193 23.1172C30.3909 22.2593 30.5304 20.4968 30.1458 20.2604C30.0004 20.1711 29.968 19.5733 30.0599 18.6823C30.2636 16.704 29.9266 15.838 28.474 14.6068C26.6953 13.0993 25.892 12.7466 24.2708 12.7552C23.1756 12.761 22.6406 12.8948 21.8255 13.3698C19.5498 14.6961 18.1647 17.1337 18.5443 19.1458C18.6396 19.6513 18.5947 20.0798 18.4245 20.2839C18.0758 20.7017 18.2554 22.3586 18.7448 23.2474C19.7062 24.9935 19.9105 25.628 19.9896 27.1146L20.0729 28.7109L17.9349 29.8906C15.1226 31.4418 12.3215 33.4938 11.8958 34.3125C11.8292 34.4406 11.7734 34.6166 11.728 34.8247C9.18155 31.9399 7.63636 28.1504 7.63636 24C7.63636 14.9626 14.9626 7.63636 24 7.63636C33.0374 7.63636 40.3636 14.9626 40.3636 24C40.3636 28.1001 38.8557 31.8479 36.3642 34.7193Z" fill="#7F90C1"/>
</svg>
